# xmcd CD database file
# Copyright (C) 1993-1998 Ti Kan
#
# Track frame offsets:
# 150
# 19883
# 47321
# 64491
# 90289
# 112529
# 135019
# 151185
# 169437
# 188422
# 210030
#
# Disc length: 3145 seconds
# Revision: 0
# Processed by: cddbd v1.4b41PL1 Copyright (c) Steve Scherf et al.
# Submitted via: CDSpectrumPro v3.2.328
#
DISCID=710c470b
DTITLE=Uncle Sam - Uncle Sam
DYEAR=1900
DGENRE=
TTITLE0=Can You Feel It
TTITLE1=You Make Me Feel Like
TTITLE2=Throw Your Hands In The Air
TTITLE3=Leave Well Enough Alone
TTITLE4=Without Lovin You
TTITLE5=Someone Like You
TTITLE6=Tender Love
TTITLE7=Think About Me
TTITLE8=Baby You Are
TTITLE9=Stop Fooling Around
TTITLE10=I Don,t Ever Want To See You Again
EXTD=
EXTT0=
EXTT1=
EXTT2=
EXTT3=
EXTT4=
EXTT5=
EXTT6=
EXTT7=
EXTT8=
EXTT9=
EXTT10=
PLAYORDER=
